<svg xmlns="http://www.w3.org/2000/svg" xmlns:xlink="http://www.w3.org/1999/xlink"><symbol id="basket" viewBox="0 0 459.529 459.529">
  <path d="M17 55.231h48.733l69.417 251.033c1.983 7.367 8.783 12.467 16.433 12.467h213.35c6.8 0 12.75-3.967 15.583-10.2l77.633-178.5c2.267-5.383 1.7-11.333-1.417-16.15-3.117-4.817-8.5-7.65-14.167-7.65H206.833c-9.35 0-17 7.65-17 17s7.65 17 17 17H416.5l-62.9 144.5H164.333L94.917 33.698c-1.983-7.367-8.783-12.467-16.433-12.467H17c-9.35 0-17 7.65-17 17s7.65 17 17 17zM135.433 438.298c21.25 0 38.533-17.283 38.533-38.533s-17.283-38.533-38.533-38.533S96.9 378.514 96.9 399.764s17.283 38.534 38.533 38.534zM376.267 438.298h2.833c10.2-.85 19.55-5.383 26.35-13.317 6.8-7.65 9.917-17.567 9.35-28.05-1.417-20.967-19.833-37.117-41.083-35.7-21.25 1.417-37.117 20.117-35.7 41.083 1.416 20.117 18.133 35.984 38.25 35.984z"/>
</symbol><symbol id="fb" viewBox="0 0 32 32"><path d="M10 13h3v-2.8c0-1.1.3-2.7 1.1-3.8.8-1.1 1.8-1.8 3.8-1.8 3.2 0 4.4.5 4.4.5l-.7 3.8s-1.4-.3-2.4-.3S17 9 17 10v3h4.6l-.3 4H17v12h-4V17h-3v-4z"/></symbol><symbol id="insta" viewBox="0 0 32 32"><path d="M23.4 4H8.6C6.1 4 4 6.1 4 8.6v14.7C4 25.9 6.1 28 8.6 28h14.7c2.6 0 4.6-2.1 4.6-4.6V8.6c.1-2.5-2-4.6-4.5-4.6zm1.3 2.8h.5v4h-4.1V6.7l3.6.1zm-12.1 6.7c.8-1.1 2-1.8 3.4-1.8s2.7.7 3.4 1.8c.5.7.8 1.5.8 2.5 0 2.3-1.9 4.2-4.2 4.2s-4.2-1.9-4.2-4.2c0-.9.3-1.8.8-2.5zm13.1 9.9c0 1.3-1 2.3-2.3 2.3H8.6c-1.3 0-2.3-1-2.3-2.3v-9.8h3.6c-.3.8-.5 1.6-.5 2.5 0 3.6 2.9 6.6 6.6 6.6 3.6 0 6.6-2.9 6.6-6.6 0-.9-.2-1.7-.5-2.5h3.6v9.8z"/></symbol><symbol id="vk" viewBox="0 0 32 32"><path d="M15.83 25.176h1.63s.45-.09.723-.362c.27-.27.18-.724.18-.724s0-2.17.996-2.533c.994-.362 2.26 2.08 3.708 3.076.995.724 1.81.543 1.81.543l3.618-.09s1.9-.09.995-1.628c-.09-.09-.542-1.086-2.713-3.166-2.262-2.17-1.99-1.81.814-5.428 1.72-2.262 2.353-3.62 2.172-4.16-.18-.544-1.447-.453-1.447-.453h-4.16s-.272 0-.544.09c-.18.09-.36.453-.36.453s-.634 1.72-1.54 3.257c-1.808 3.076-2.532 3.257-2.894 3.076-.724-.452-.543-1.81-.543-2.804 0-2.985.452-4.252-.905-4.614-.452-.09-.814-.18-1.9-.18-1.447 0-2.714 0-3.438.36-.452.272-.814.725-.633.815.27 0 .905.18 1.176.633.452.543.452 1.9.452 1.9s.27 3.528-.543 3.98c-.543.27-1.357-.27-2.985-3.166-.814-1.447-1.447-3.076-1.447-3.076s.09-.27-.18-.452-.634-.27-.634-.27l-3.89.09s-.543 0-.814.27c-.18.27 0 .724 0 .724S5.608 18.483 9.045 22.1c3.166 3.258 6.785 3.077 6.785 3.077z"/></symbol></svg>